<?xml version="1.0" encoding="UTF-8" standalone="no"?>
<!DOCTYPE svg PUBLIC "-//W3C//DTD SVG 1.1//EN" "http://www.w3.org/Graphics/SVG/1.1/DTD/svg11.dtd">
<!-- Created with Vectornator (http://vectornator.io/) -->
<svg height="40.0px" stroke-miterlimit="10" style="fill-rule:nonzero;clip-rule:evenodd;stroke-linecap:round;stroke-linejoin:round;" version="1.1" viewBox="0 0 40 40" width="40.0px" xml:space="preserve" xmlns="http://www.w3.org/2000/svg" xmlns:xlink="http://www.w3.org/1999/xlink">
<defs/>
<g id="Слой-1">
<g opacity="1">
<path d="M15.327 39C12.8068 39 10.5366 38.5478 8.5166 37.6435C6.49656 36.7391 4.83347 35.4474 3.52734 33.7682C2.2212 32.0891 1.37876 30.0916 1 27.7758L6.28969 26.9307C6.82512 29.162 7.94466 30.8974 9.64831 32.1369C11.352 33.3765 13.3422 33.9962 15.6191 33.9962C17.0254 33.9962 18.3234 33.7653 19.5131 33.3033C20.7029 32.8414 21.6575 32.1751 22.3768 31.3046C23.0962 30.434 23.4559 29.3874 23.4559 28.1648C23.4559 27.5056 23.3477 26.9224 23.1313 26.4153C22.9149 25.9082 22.6134 25.4672 22.2268 25.0924C21.8402 24.7176 21.3764 24.3894 20.8356 24.1077C20.2947 23.826 19.7024 23.5838 19.0587 23.3809L10.07 20.6088C9.19388 20.3439 8.30282 19.9946 7.39687 19.5607C6.49092 19.1269 5.65937 18.5607 4.90224 17.8619C4.1451 17.1632 3.5326 16.2926 3.06473 15.2503C2.59686 14.2079 2.36292 12.9458 2.36292 11.4638C2.36292 9.21004 2.91864 7.30137 4.03007 5.73777C5.1415 4.17417 6.64373 2.99091 8.53676 2.18798C10.4298 1.38505 12.5526 0.989134 14.9053 1.00023C17.2795 1.02294 19.4023 1.45689 21.2736 2.30208C23.145 3.14727 24.7013 4.36289 25.9425 5.94893C27.1838 7.53498 28.0423 9.44656 28.5182 11.6837L23.0665 12.6638C22.8178 11.2835 22.2986 10.0989 21.5088 9.11007C20.7191 8.1212 19.7456 7.36192 18.5883 6.83222C17.431 6.30253 16.1816 6.02645 14.8403 6.004C13.5369 5.98155 12.3485 6.19001 11.275 6.62938C10.2014 7.06874 9.34282 7.68289 8.69914 8.47182C8.05545 9.26075 7.73361 10.1736 7.73361 11.2102C7.73361 12.2245 8.01622 13.0429 8.58144 13.6656C9.14666 14.2882 9.8484 14.7813 10.6867 15.1447C11.5249 15.5081 12.3578 15.8082 13.1853 16.0448L19.6592 17.9548C20.4704 18.1859 21.3925 18.5001 22.4255 18.8973C23.4585 19.2946 24.4577 19.851 25.4232 20.5665C26.3888 21.282 27.1865 22.2243 27.8165 23.3936C28.4465 24.5629 28.7615 26.0405 28.7615 27.8265C28.7615 29.6579 28.4046 31.2723 27.6907 32.6696C26.9768 34.0669 25.9979 35.2333 24.754 36.1687C23.5101 37.1041 22.0795 37.8098 20.4623 38.2859C18.8451 38.762 17.1334 39 15.327 39Z" fill="#000000" fill-rule="nonzero" opacity="1" stroke="none"/>
<path d="M33.613 38.2393L33.613 32.627L39 32.627L39 38.2393L33.613 38.2393Z" fill="#c1ff72" fill-rule="nonzero" opacity="1" stroke="none"/>
</g>
</g>
</svg>
