<?xml version="1.0" encoding="UTF-8" standalone="no"?>
<!DOCTYPE svg PUBLIC "-//W3C//DTD SVG 1.1//EN" "http://www.w3.org/Graphics/SVG/1.1/DTD/svg11.dtd">
<!-- Created with Vectornator (http://vectornator.io/) -->
<svg height="54.0px" stroke-miterlimit="10" style="fill-rule:nonzero;clip-rule:evenodd;stroke-linecap:round;stroke-linejoin:round;" version="1.1" viewBox="0 0 194 54" width="194.0px" xml:space="preserve" xmlns="http://www.w3.org/2000/svg" xmlns:xlink="http://www.w3.org/1999/xlink">
<defs/>
<g id="Слой-1">
<g opacity="1">
<path d="M23.0091 49.2221C19.9383 49.2221 17.1721 48.6932 14.7107 47.6355C12.2493 46.5778 10.2228 45.067 8.6313 43.1031C7.03978 41.1392 6.01327 38.803 5.55176 36.0944L11.9972 35.1061C12.6496 37.7157 14.0138 39.7455 16.0897 41.1952C18.1656 42.6449 20.5907 43.3698 23.365 43.3698C25.0785 43.3698 26.6602 43.0996 28.1099 42.5593C29.5596 42.019 30.7228 41.2398 31.5993 40.2216C32.4758 39.2035 32.9141 37.9794 32.9141 36.5495C32.9141 35.7784 32.7823 35.0963 32.5186 34.5032C32.255 33.9101 31.8876 33.3944 31.4165 32.956C30.9454 32.5177 30.3803 32.1338 29.7213 31.8043C29.0622 31.4749 28.3405 31.1915 27.5562 30.9543L16.6035 27.7121C15.5359 27.4023 14.4502 26.9936 13.3463 26.4863C12.2424 25.9789 11.2292 25.3166 10.3066 24.4993C9.38404 23.6821 8.63771 22.6639 8.06761 21.4448C7.49751 20.2257 7.21247 18.7495 7.21247 17.0162C7.21247 14.3802 7.8896 12.1479 9.24387 10.3191C10.5981 8.49036 12.4286 7.10643 14.7352 6.16734C17.0419 5.22825 19.6286 4.76519 22.4953 4.77816C25.3882 4.80473 27.9748 5.31227 30.2551 6.30079C32.5353 7.28931 34.4316 8.71108 35.9441 10.5661C37.4565 12.4211 38.5026 14.6569 39.0825 17.2733L32.4396 18.4197C32.1366 16.8053 31.5039 15.4199 30.5417 14.2633C29.5794 13.1067 28.3932 12.2187 26.983 11.5992C25.5728 10.9796 24.0505 10.6568 22.416 10.6305C20.8279 10.6042 19.3798 10.8481 18.0717 11.3619C16.7636 11.8758 15.7174 12.5941 14.9331 13.5168C14.1488 14.4395 13.7566 15.5071 13.7566 16.7196C13.7566 17.9058 14.101 18.8631 14.7897 19.5913C15.4784 20.3196 16.3335 20.8963 17.3549 21.3213C18.3763 21.7464 19.3912 22.0973 20.3995 22.3741L28.2878 24.608C29.2764 24.8783 30.3999 25.2457 31.6586 25.7103C32.9173 26.175 34.1348 26.8257 35.3113 27.6625C36.4878 28.4994 37.4599 29.6016 38.2275 30.9691C38.9952 32.3367 39.379 34.0649 39.379 36.1537C39.379 38.2957 38.9441 40.1839 38.0742 41.8182C37.2043 43.4525 36.0115 44.8166 34.4958 45.9106C32.9801 47.0047 31.237 47.8301 29.2665 48.3869C27.2959 48.9437 25.2101 49.2221 23.0091 49.2221Z" fill="#ffffff" fill-rule="nonzero" opacity="1" stroke="none"/>
<path d="M54.7408 49.2221C52.3814 49.2221 50.3977 48.7838 48.7898 47.9073C47.1819 47.0308 45.9694 45.8643 45.1521 44.4079C44.3349 42.9516 43.9263 41.3535 43.9263 39.6137C43.9263 37.999 44.2146 36.5772 44.7912 35.3482C45.3678 34.1192 46.2163 33.073 47.3367 32.2098C48.4571 31.3465 49.8443 30.6512 51.4982 30.1239C52.9087 29.7088 54.5151 29.3414 56.3174 29.0218C58.1198 28.7022 60.0128 28.4073 61.9965 28.137C63.9802 27.8667 65.9506 27.5867 67.9079 27.2969L65.6735 28.5619C65.7066 26.0381 65.1745 24.1716 64.0772 22.9623C62.98 21.7531 61.1001 21.1485 58.4376 21.1485C56.7506 21.1485 55.207 21.5389 53.8067 22.3197C52.4064 23.1004 51.4261 24.3904 50.8657 26.1895L45.0926 24.4101C45.8704 21.6556 47.3714 19.4677 49.5956 17.8465C51.8198 16.2254 54.7804 15.4148 58.4774 15.4148C61.3506 15.4148 63.8483 15.9057 65.9703 16.8876C68.0924 17.8695 69.6477 19.4149 70.6362 21.5238C71.1502 22.5781 71.4666 23.6885 71.5852 24.855C71.7038 26.0214 71.7631 27.2704 71.7631 28.6018L71.7631 48.3324L66.2866 48.3324L66.2866 41.0172L67.3542 41.9468C66.0296 44.3983 64.3425 46.2237 62.293 47.4231C60.2436 48.6224 57.7262 49.2221 54.7408 49.2221ZM55.8478 44.1607C57.6074 44.1607 59.1214 43.8477 60.39 43.2217C61.6585 42.5957 62.6767 41.7967 63.4445 40.8247C64.2123 39.8527 64.7181 38.8493 64.9618 37.8144C65.2914 36.8655 65.4793 35.7946 65.5255 34.6019C65.5717 33.4092 65.5948 32.4635 65.5948 31.7647L67.6113 32.4964C65.6671 32.7929 63.8926 33.0582 62.2879 33.2922C60.6833 33.5262 59.2351 33.7601 57.9434 33.994C56.6517 34.2278 55.4984 34.4997 54.4837 34.8095C53.6335 35.0996 52.8757 35.4522 52.2102 35.8674C51.5446 36.2826 51.0191 36.7899 50.6335 37.3895C50.248 37.9891 50.0553 38.7108 50.0553 39.5544C50.0553 40.3847 50.2628 41.1492 50.678 41.8478C51.0932 42.5464 51.7275 43.1066 52.5808 43.5282C53.4342 43.9499 54.5232 44.1607 55.8478 44.1607Z" fill="#ffffff" fill-rule="nonzero" opacity="1" stroke="none"/>
<path d="M79.4341 48.3324L79.4735 5.62844L85.7604 5.62844L85.7604 31.7253L98.3344 16.3044L106.223 16.3044L92.9375 32.3184L107.587 48.3324L99.1647 48.3324L85.7604 32.9115L85.7604 48.3324L79.4341 48.3324Z" fill="#ffffff" fill-rule="nonzero" opacity="1" stroke="none"/>
<path d="M133.031 48.3324L133.031 32.5951C133.031 31.343 132.928 30.0597 132.72 28.7449C132.513 27.4302 132.119 26.2078 131.539 25.0776C130.959 23.9475 130.14 23.0364 129.082 22.3444C128.024 21.6525 126.646 21.3065 124.945 21.3065C123.832 21.3065 122.782 21.4926 121.797 21.8649C120.812 22.2371 119.947 22.8285 119.202 23.6391C118.457 24.4497 117.871 25.514 117.443 26.8322C117.014 28.1503 116.8 29.7616 116.8 31.666L112.945 30.2226C112.945 27.3164 113.489 24.7512 114.576 22.527C115.663 20.3028 117.227 18.5648 119.266 17.3127C121.306 16.0607 123.766 15.4347 126.646 15.4347C128.86 15.4347 130.72 15.7938 132.226 16.512C133.732 17.2303 134.954 18.1676 135.893 19.3242C136.832 20.4808 137.549 21.7379 138.043 23.0956C138.538 24.4532 138.874 25.7861 139.052 27.0942C139.229 28.4023 139.318 29.5506 139.318 30.5391L139.318 48.3324L133.031 48.3324ZM110.513 48.3324L110.513 16.3044L116.069 16.3044L116.069 25.557L116.8 25.557L116.8 48.3324L110.513 48.3324Z" fill="#ffffff" fill-rule="nonzero" opacity="1" stroke="none"/>
<path d="M160.848 49.2221C157.652 49.2221 154.856 48.5236 152.461 47.1265C150.065 45.7295 148.199 43.7821 146.861 41.2844C145.523 38.7867 144.854 35.8902 144.854 32.5951C144.854 29.0957 145.512 26.061 146.826 23.4908C148.141 20.9207 149.973 18.9321 152.323 17.5252C154.672 16.1182 157.409 15.4148 160.532 15.4148C163.794 15.4148 166.572 16.1726 168.865 17.6883C171.159 19.204 172.874 21.3556 174.011 24.1432C175.148 26.9309 175.604 30.2359 175.38 34.0584L169.172 34.0584L169.172 31.8046C169.132 28.0942 168.425 25.3511 167.051 23.5751C165.677 21.7992 163.583 20.9112 160.77 20.9112C157.672 20.9112 155.342 21.8882 153.781 23.842C152.219 25.7959 151.438 28.6214 151.438 32.3184C151.438 35.8311 152.219 38.5511 153.781 40.4786C155.342 42.406 157.593 43.3698 160.532 43.3698C162.47 43.3698 164.147 42.9316 165.564 42.0552C166.981 41.1788 168.084 39.9169 168.875 38.2695L174.945 40.2068C173.706 43.067 171.821 45.2846 169.29 46.8596C166.76 48.4346 163.946 49.2221 160.848 49.2221ZM149.421 34.0584L149.421 29.2343L172.276 29.2343L172.276 34.0584L149.421 34.0584Z" fill="#ffffff" fill-rule="nonzero" opacity="1" stroke="none"/>
<path d="M181.884 48.3324L181.884 41.7684L188.448 41.7684L188.448 48.3324L181.884 48.3324Z" fill="#c1ff72" fill-rule="nonzero" opacity="1" stroke="none"/>
</g>
</g>
</svg>
