<?xml version="1.0" encoding="UTF-8" standalone="no"?>
<!DOCTYPE svg PUBLIC "-//W3C//DTD SVG 1.1//EN" "http://www.w3.org/Graphics/SVG/1.1/DTD/svg11.dtd">
<!-- Created with Vectornator (http://vectornator.io/) -->
<svg height="54.0px" stroke-miterlimit="10" style="fill-rule:nonzero;clip-rule:evenodd;stroke-linecap:round;stroke-linejoin:round;" version="1.1" viewBox="0 0 194 54" width="194.0px" xml:space="preserve" xmlns="http://www.w3.org/2000/svg" xmlns:xlink="http://www.w3.org/1999/xlink">
<defs/>
<g id="Слой-1">
<g opacity="1">
<path d="M18.6853 48.0237C15.78 48.0237 13.163 47.5234 10.8344 46.5227C8.50569 45.522 6.58851 44.0927 5.08283 42.2347C3.57714 40.3767 2.60598 38.1665 2.16936 35.604L8.26721 34.6689C8.88445 37.1379 10.175 39.0581 12.139 40.4297C14.1029 41.8012 16.3973 42.487 19.022 42.487C20.6431 42.487 22.1394 42.2314 23.511 41.7202C24.8825 41.2091 25.9829 40.4719 26.8122 39.5086C27.6415 38.5454 28.0561 37.3873 28.0561 36.0345C28.0561 35.305 27.9314 34.6597 27.6819 34.0986C27.4325 33.5375 27.0849 33.0495 26.6393 32.6348C26.1936 32.2201 25.659 31.8569 25.0354 31.5452C24.4119 31.2336 23.7291 30.9655 22.9871 30.741L12.6251 27.6737C11.6151 27.3806 10.5879 26.994 9.54355 26.514C8.49919 26.0339 7.5406 25.4073 6.66779 24.6342C5.79497 23.861 5.08889 22.8978 4.54954 21.7444C4.01018 20.591 3.74051 19.1944 3.74051 17.5546C3.74051 15.0608 4.38113 12.9488 5.66236 11.2187C6.9436 9.48855 8.67534 8.17926 10.8576 7.29081C13.0398 6.40236 15.487 5.96427 18.1991 5.97655C20.9361 6.00168 23.3832 6.48185 25.5405 7.41706C27.6977 8.35227 29.4918 9.69737 30.9227 11.4523C32.3535 13.2073 33.3432 15.3225 33.8918 17.7979L27.6072 18.8824C27.3205 17.3551 26.722 16.0444 25.8116 14.9502C24.9012 13.856 23.779 13.0158 22.4448 12.4297C21.1107 11.8436 19.6705 11.5381 18.1242 11.5133C16.6217 11.4884 15.2517 11.7191 14.0141 12.2053C12.7766 12.6914 11.7868 13.371 11.0448 14.2439C10.3028 15.1169 9.93174 16.1269 9.93174 17.274C9.93174 18.3963 10.2575 19.3019 10.9091 19.9909C11.5607 20.6799 12.3696 21.2254 13.336 21.6276C14.3023 22.0297 15.2624 22.3617 16.2163 22.6236L23.6793 24.737C24.6145 24.9927 25.6775 25.3403 26.8683 25.7799C28.0591 26.2194 29.211 26.8351 30.3241 27.6268C31.4371 28.4185 32.3567 29.4613 33.083 30.7551C33.8092 32.0489 34.1724 33.6839 34.1724 35.6601C34.1724 37.6866 33.7609 39.4729 32.9379 41.0191C32.1149 42.5652 30.9864 43.8558 29.5525 44.8908C28.1186 45.9258 26.4695 46.7067 24.6052 47.2335C22.7409 47.7603 20.7676 48.0237 18.6853 48.0237Z" fill="#ffffff" fill-rule="nonzero" opacity="1" stroke="none"/>
<path d="M37.3522 47.182L50.4825 6.78097L58.9182 6.78097L72.0486 47.182L65.9696 47.182L53.8681 10.3161L55.4016 10.3161L43.4312 47.182L37.3522 47.182ZM44.1606 38.0729L44.1606 32.5739L65.259 32.5739L65.259 38.0729L44.1606 38.0729Z" fill="#ffffff" fill-rule="nonzero" opacity="1" stroke="none"/>
<path d="M77.0986 47.182L77.0986 6.78097L82.9721 6.78097L82.9721 25.6348L99.8803 6.78097L107.175 6.78097L89.3128 26.4953L108.484 47.182L100.965 47.182L82.9721 27.8793L82.9721 47.182L77.0986 47.182Z" fill="#ffffff" fill-rule="nonzero" opacity="1" stroke="none"/>
<path d="M112.412 47.182L112.412 6.78097L118.36 6.78097L138.261 36.8012L138.261 6.78097L144.21 6.78097L144.21 47.182L138.261 47.182L118.36 17.1434L118.36 47.182L112.412 47.182Z" fill="#ffffff" fill-rule="nonzero" opacity="1" stroke="none"/>
<path d="M152.065 47.182L152.065 6.78097L177.877 6.78097L177.877 12.3177L157.939 12.3177L157.939 23.6336L174.51 23.6336L174.51 29.1699L157.939 29.1699L157.939 41.6453L177.877 41.6453L177.877 47.182L152.065 47.182Z" fill="#ffffff" fill-rule="nonzero" opacity="1" stroke="none"/>
<path d="M185.621 47.182L185.621 40.9719L191.831 40.9719L191.831 47.182L185.621 47.182Z" fill="#c1ff72" fill-rule="nonzero" opacity="1" stroke="none"/>
</g>
</g>
</svg>
