<?xml version="1.0" standalone="no"?>
<!DOCTYPE svg PUBLIC "-//W3C//DTD SVG 20010904//EN"
 "http://www.w3.org/TR/2001/REC-SVG-20010904/DTD/svg10.dtd">
<svg version="1.0" xmlns="http://www.w3.org/2000/svg"
 width="16.000000pt" height="16.000000pt" viewBox="0 0 16.000000 16.000000"
 preserveAspectRatio="xMidYMid meet">

<g transform="translate(0.000000,16.000000) scale(0.100000,-0.100000)"
fill="#000000" stroke="none">
<path d="M47 133 c-18 -17 -5 -45 28 -59 19 -8 35 -18 35 -23 0 -17 -28 -19
-50 -4 -20 14 -22 14 -18 -3 2 -13 13 -20 34 -22 59 -6 69 47 13 67 -16 5 -29
14 -29 20 0 17 20 23 36 10 16 -13 30 -6 19 10 -7 12 -58 15 -68 4z"/>
</g>
</svg>
