<svg xmlns="http://www.w3.org/2000/svg" version="1.1" xmlns:xlink="http://www.w3.org/1999/xlink" xmlns:svgjs="http://svgjs.dev/svgjs" width="1000" height="1000"><style>
    #light-icon {
      display: inline;
    }
    #dark-icon {
      display: none;
    }

    @media (prefers-color-scheme: dark) {
      #light-icon {
        display: none;
      }
      #dark-icon {
        display: inline;
      }
    }
  </style><g id="light-icon"><svg xmlns="http://www.w3.org/2000/svg" version="1.1" xmlns:xlink="http://www.w3.org/1999/xlink" xmlns:svgjs="http://svgjs.dev/svgjs" width="1000" height="1000"><g><g transform="matrix(2.816901408450704,0,0,2.816901408450704,5.684341886080802e-14,5.684341886080802e-14)"><svg xmlns="http://www.w3.org/2000/svg" version="1.1" xmlns:xlink="http://www.w3.org/1999/xlink" xmlns:svgjs="http://svgjs.dev/svgjs" width="355" height="355"><svg width="355" height="355" viewBox="0 0 355 355" fill="none" xmlns="http://www.w3.org/2000/svg">
<path d="M189.332 32.239L320.798 323.761H262.369L165.334 99.433L71.6382 323.761H14.8781L144.049 32.239H189.332Z" fill="black"></path>
<path d="M201.844 204.374C167.037 219.597 116.565 256.936 69.4537 303.89L69.4421 303.863L54.2856 319.861L59.5025 323.761L71.8306 308.625C97.0821 283.156 164.724 217.122 262.553 188.148C262.553 188.148 298.67 178.441 336.319 161.551C327.153 165.662 310.328 169.312 300.979 172.091C276.443 179.383 247.256 184.509 201.844 204.374Z" fill="black" stroke="white" stroke-width="1.10526" stroke-miterlimit="10" stroke-linejoin="round"></path>
<path d="M77.7669 258.711C64.9354 279.624 60.4274 297.035 61.5754 302.492L65.4644 303.588C82.4696 284.37 156.89 218.369 196.188 202.218C236.904 185.483 266.916 177.526 291.679 172.534C300.375 170.782 309.655 167.704 318.174 164.399C328.606 160.072 339.287 155.31 348.849 150.399L322.828 158.615L336.841 146.396L312.788 160.14L330.798 142.827C301.284 137.315 270.518 144.19 270.518 144.19C256.262 153.854 241.976 171.591 241.976 171.591C244.518 161.426 255.647 148.083 255.647 148.083C249.953 148.966 227.699 154.514 227.699 154.514C216.132 159.65 207.458 179.281 207.458 179.281C207.948 170.712 218.561 156.917 218.561 156.917C187.17 164.864 160.413 185.928 160.413 185.928C139.676 208.377 144.894 231.922 142.117 225.854C139.34 219.787 145.265 202.18 145.265 202.18C109.441 221.315 102.826 233.438 102.826 233.438C94.8324 243.623 81.9925 273.274 81.9925 273.274C80.1328 269.64 87.3485 254.263 87.3485 254.263C76.4634 266.743 75.9163 281.2 75.9163 281.2C72.9793 279.126 77.7669 258.711 77.7669 258.711Z" fill="black" stroke="white" stroke-width="1.10526" stroke-miterlimit="10" stroke-linejoin="round"></path>
<path d="M346.283 159.523C346.283 159.523 332.463 166.984 315.607 173.523C288.957 184.577 264.002 192.721 264.002 192.721C168.059 218.151 99.883 284.554 77.0732 307.482L85.1266 309.751C88.6158 308.271 93.3753 307.755 112.682 307.616C137.075 307.441 154.37 297.598 154.37 297.598C154.37 297.598 130.549 303.324 121.177 299.441C111.806 295.558 97.7497 295.535 97.7497 295.535C97.7497 295.535 93.4235 291.83 118.985 295.093C144.547 298.357 192.643 282.269 192.643 282.269C192.643 282.269 175.425 284.257 168.467 281.673C161.509 279.089 143.737 274.706 143.737 274.706C156.165 275.305 166.615 279.909 186.315 278.203C206.016 276.497 204.863 276.796 204.863 276.796C226.937 275.759 241.216 257.192 241.216 257.192C237.347 257.553 209.77 253.305 199.632 246.928C189.493 240.55 169.734 238.505 169.734 238.505C189.217 237.569 192.419 241.374 196.822 242.407C201.229 243.441 214.954 248.55 245.555 246.81C276.157 245.07 287.425 235.392 287.425 235.392L267.903 232.605C280.77 233.999 296.907 229.772 296.907 229.772C287.749 229.679 274.168 227.095 274.168 227.095C290.771 228.044 300.83 225.696 300.83 225.696C318.609 218.684 326.624 203.117 326.624 203.117C303.847 204.367 288.348 196.479 288.348 196.479C317.381 202.588 327.351 197.517 331.791 196.906C336.238 196.292 339.881 189.599 339.881 189.599C324.026 190.729 307.46 186.993 307.46 186.993C325.889 189.23 343.536 184.563 343.536 184.563L346.054 175.624C338.131 177.59 325.265 177.231 325.265 177.231L347.369 170.402C350.124 164.646 346.283 159.523 346.283 159.523Z" fill="black" stroke="white" stroke-width="1.10526" stroke-miterlimit="10" stroke-linejoin="round"></path>
</svg></svg></g></g></svg></g><g id="dark-icon"><svg xmlns="http://www.w3.org/2000/svg" version="1.1" xmlns:xlink="http://www.w3.org/1999/xlink" xmlns:svgjs="http://svgjs.dev/svgjs" width="1000" height="1000"><g><g transform="matrix(2.816901408450704,0,0,2.816901408450704,5.684341886080802e-14,5.684341886080802e-14)"><svg xmlns="http://www.w3.org/2000/svg" version="1.1" xmlns:xlink="http://www.w3.org/1999/xlink" xmlns:svgjs="http://svgjs.dev/svgjs" width="355" height="355"><svg width="355" height="355" viewBox="0 0 355 355" fill="none" xmlns="http://www.w3.org/2000/svg">
<path d="M189.332 32.239L320.798 323.761H262.369L165.334 99.433L71.6382 323.761H14.8781L144.049 32.239H189.332Z" fill="white"></path>
<path d="M201.844 204.374C167.037 219.597 116.565 256.936 69.4537 303.89L69.4421 303.863L54.2856 319.861L59.5025 323.761L71.8306 308.625C97.0821 283.156 164.724 217.122 262.553 188.148C262.553 188.148 298.67 178.441 336.319 161.551C327.153 165.662 310.328 169.312 300.979 172.091C276.443 179.383 247.256 184.509 201.844 204.374Z" fill="white" stroke="black" stroke-width="1.10526" stroke-miterlimit="10" stroke-linejoin="round"></path>
<path d="M77.7669 258.711C64.9354 279.624 60.4274 297.035 61.5754 302.492L65.4644 303.588C82.4696 284.37 156.89 218.369 196.188 202.218C236.904 185.483 266.916 177.526 291.679 172.534C300.375 170.782 309.655 167.704 318.174 164.399C328.606 160.072 339.287 155.31 348.849 150.399L322.828 158.615L336.841 146.396L312.788 160.14L330.798 142.827C301.284 137.315 270.518 144.19 270.518 144.19C256.262 153.854 241.976 171.591 241.976 171.591C244.518 161.426 255.647 148.083 255.647 148.083C249.953 148.966 227.699 154.514 227.699 154.514C216.132 159.65 207.458 179.281 207.458 179.281C207.948 170.712 218.561 156.917 218.561 156.917C187.17 164.864 160.413 185.928 160.413 185.928C139.676 208.377 144.894 231.922 142.117 225.854C139.34 219.787 145.265 202.18 145.265 202.18C109.441 221.315 102.826 233.438 102.826 233.438C94.8324 243.623 81.9925 273.274 81.9925 273.274C80.1328 269.64 87.3485 254.263 87.3485 254.263C76.4634 266.743 75.9163 281.2 75.9163 281.2C72.9793 279.126 77.7669 258.711 77.7669 258.711Z" fill="white" stroke="black" stroke-width="1.10526" stroke-miterlimit="10" stroke-linejoin="round"></path>
<path d="M346.283 159.523C346.283 159.523 332.463 166.984 315.607 173.523C288.957 184.577 264.002 192.721 264.002 192.721C168.059 218.151 99.883 284.554 77.0732 307.482L85.1266 309.751C88.6158 308.271 93.3753 307.755 112.682 307.616C137.075 307.441 154.37 297.598 154.37 297.598C154.37 297.598 130.549 303.324 121.177 299.441C111.806 295.558 97.7497 295.535 97.7497 295.535C97.7497 295.535 93.4235 291.83 118.985 295.093C144.547 298.357 192.643 282.269 192.643 282.269C192.643 282.269 175.425 284.257 168.467 281.673C161.509 279.089 143.737 274.706 143.737 274.706C156.165 275.305 166.615 279.909 186.315 278.203C206.016 276.497 204.863 276.796 204.863 276.796C226.937 275.759 241.216 257.192 241.216 257.192C237.347 257.553 209.77 253.305 199.632 246.928C189.493 240.55 169.734 238.505 169.734 238.505C189.217 237.569 192.419 241.374 196.822 242.407C201.229 243.441 214.954 248.55 245.555 246.81C276.157 245.07 287.425 235.392 287.425 235.392L267.903 232.605C280.77 233.999 296.907 229.772 296.907 229.772C287.749 229.679 274.168 227.095 274.168 227.095C290.771 228.044 300.83 225.696 300.83 225.696C318.609 218.684 326.624 203.117 326.624 203.117C303.847 204.367 288.348 196.479 288.348 196.479C317.381 202.588 327.351 197.517 331.791 196.906C336.238 196.292 339.881 189.599 339.881 189.599C324.026 190.729 307.46 186.993 307.46 186.993C325.889 189.23 343.536 184.563 343.536 184.563L346.054 175.624C338.131 177.59 325.265 177.231 325.265 177.231L347.369 170.402C350.124 164.646 346.283 159.523 346.283 159.523Z" fill="white" stroke="black" stroke-width="1.10526" stroke-miterlimit="10" stroke-linejoin="round"></path>
</svg></svg></g></g></svg></g></svg>